# xmcd
#
# Track frame offsets:
#	183
#	14753
#	34243
#
# Disc length: 655 seconds
# Revision: 1
# Processed by: cddbd v1.5.2PL0 Copyright (c) Steve Scherf et al.
# Submitted via: dBpowerAMP V12.0
#
DISCID=21028d03
DTITLE=Worlds Apart - Wonderful World
DYEAR=1993
DGENRE=House
TTITLE0=Wonderful World [7” Version]
TTITLE1=Wonderful World [Extended Club Mix]
TTITLE2=Dance With Me
EXTD=
EXTT0=
EXTT1=
EXTT2=
PLAYORDER=
